<svg width="80" height="80" viewBox="0 0 80 80" fill="none" xmlns="http://www.w3.org/2000/svg">
<path d="M71.1111 53.3333V8.88889H8.88889V53.3333H71.1111ZM0 4.41333C0 1.97778 1.97778 0 4.41333 0H75.5867C78.0222 0 80 1.97778 80 4.41333V75.5867C79.9988 76.7568 79.5335 77.8787 78.7061 78.7061C77.8787 79.5335 76.7568 79.9988 75.5867 80H4.41333C3.24321 79.9988 2.12134 79.5335 1.29393 78.7061C0.466529 77.8787 0.0011766 76.7568 0 75.5867V4.41333ZM40 40C42.3575 40 44.6184 39.0635 46.2854 37.3965C47.9524 35.7295 48.8889 33.4686 48.8889 31.1111C48.8889 28.7536 47.9524 26.4927 46.2854 24.8257C44.6184 23.1587 42.3575 22.2222 40 22.2222C37.6425 22.2222 35.3816 23.1587 33.7146 24.8257C32.0476 26.4927 31.1111 28.7536 31.1111 31.1111C31.1111 33.4686 32.0476 35.7295 33.7146 37.3965C35.3816 39.0635 37.6425 40 40 40ZM40 48.8889C35.285 48.8889 30.7632 47.0159 27.4292 43.6819C24.0952 40.3479 22.2222 35.8261 22.2222 31.1111C22.2222 26.3962 24.0952 21.8743 27.4292 18.5403C30.7632 15.2063 35.285 13.3333 40 13.3333C44.715 13.3333 49.2368 15.2063 52.5708 18.5403C55.9048 21.8743 57.7778 26.3962 57.7778 31.1111C57.7778 35.8261 55.9048 40.3479 52.5708 43.6819C49.2368 47.0159 44.715 48.8889 40 48.8889ZM13.3333 13.3333H22.2222V22.2222H13.3333V13.3333ZM13.3333 62.2222V71.1111H66.6667V62.2222H13.3333Z" fill="white"/>
</svg>
