<svg width="60" height="60" viewBox="0 0 60 60" fill="none" xmlns="http://www.w3.org/2000/svg">
<path d="M41.25 21.9512C41.25 24.8621 40.0647 27.6538 37.955 29.7121C35.8452 31.7705 32.9837 32.9268 30 32.9268C27.0163 32.9268 24.1548 31.7705 22.045 29.7121C19.9353 27.6538 18.75 24.8621 18.75 21.9512C18.75 19.0403 19.9353 16.2486 22.045 14.1903C24.1548 12.1319 27.0163 10.9756 30 10.9756C32.9837 10.9756 35.8452 12.1319 37.955 14.1903C40.0647 16.2486 41.25 19.0403 41.25 21.9512Z" fill="white"/>
<path fill-rule="evenodd" clip-rule="evenodd" d="M0 30C0 22.0435 3.16071 14.4129 8.7868 8.7868C14.4129 3.16071 22.0435 0 30 0C37.9565 0 45.5871 3.16071 51.2132 8.7868C56.8393 14.4129 60 22.0435 60 30C60 37.9565 56.8393 45.5871 51.2132 51.2132C45.5871 56.8393 37.9565 60 30 60C22.0435 60 14.4129 56.8393 8.7868 51.2132C3.16071 45.5871 0 37.9565 0 30ZM30 3.75C25.0567 3.75026 20.2139 5.14636 16.029 7.7776C11.8441 10.4088 8.48731 14.1683 6.34487 18.6232C4.20242 23.0782 3.36145 28.0475 3.91874 32.9593C4.47604 37.8712 6.40895 42.5258 9.495 46.3875C12.1575 42.0975 18.0188 37.5 30 37.5C41.9813 37.5 47.8388 42.0938 50.505 46.3875C53.5911 42.5258 55.524 37.8712 56.0813 32.9593C56.6386 28.0475 55.7976 23.0782 53.6551 18.6232C51.5127 14.1683 48.1559 10.4088 43.971 7.7776C39.7861 5.14636 34.9433 3.75026 30 3.75Z" fill="white"/>
</svg>
